<svg width="50" height="50" viewBox="0 0 50 50" fill="none" xmlns="http://www.w3.org/2000/svg">
<path d="M32.8392 22.4582L33.9627 22.7315L33.4688 22.8094C26.9744 23.8342 21.626 28.4593 19.6749 34.7379L19.4714 34.1522C17.4063 28.2094 12.2574 23.8711 6.05043 22.844C12.32 21.1035 17.3991 16.4033 19.5764 10.2716C21.6099 16.3427 26.6181 20.9445 32.8392 22.4582Z" fill="white"/>
<path d="M32.8392 22.4582L33.9627 22.7315L33.4688 22.8094C26.9744 23.8342 21.626 28.4593 19.6749 34.7379L19.4714 34.1522C17.4063 28.2094 12.2574 23.8711 6.05043 22.844C12.32 21.1035 17.3991 16.4033 19.5764 10.2716C21.6099 16.3427 26.6181 20.9445 32.8392 22.4582Z" fill="url(#paint0_linear_206_54)" fill-opacity="0.8"/>
<path d="M32.8392 22.4582L33.9627 22.7315L33.4688 22.8094C26.9744 23.8342 21.626 28.4593 19.6749 34.7379L19.4714 34.1522C17.4063 28.2094 12.2574 23.8711 6.05043 22.844C12.32 21.1035 17.3991 16.4033 19.5764 10.2716C21.6099 16.3427 26.6181 20.9445 32.8392 22.4582Z" stroke="black"/>
<path d="M32.9918 29.4475L33.3503 28L33.5901 29.0533C34.2333 31.8793 36.2727 34.1824 39 35.1628C36.331 35.7583 34.2511 37.8502 33.671 40.5227L33.3503 42L32.905 40.1146C32.3286 37.6745 30.4346 35.7624 28 35.1628C30.489 34.1752 32.348 32.0467 32.9918 29.4475Z" fill="white"/>
<path d="M32.9918 29.4475L33.3503 28L33.5901 29.0533C34.2333 31.8793 36.2727 34.1824 39 35.1628C36.331 35.7583 34.2511 37.8502 33.671 40.5227L33.3503 42L32.905 40.1146C32.3286 37.6745 30.4346 35.7624 28 35.1628C30.489 34.1752 32.348 32.0467 32.9918 29.4475Z" fill="url(#paint1_linear_206_54)" fill-opacity="0.8"/>
<path d="M32.9918 29.4475L33.3503 28L33.5901 29.0533C34.2333 31.8793 36.2727 34.1824 39 35.1628C36.331 35.7583 34.2511 37.8502 33.671 40.5227L33.3503 42L32.905 40.1146C32.3286 37.6745 30.4346 35.7624 28 35.1628C30.489 34.1752 32.348 32.0467 32.9918 29.4475Z" stroke="black"/>
<defs>
<linearGradient id="paint0_linear_206_54" x1="19.9911" y1="10.27" x2="19.9834" y2="34.7365" gradientUnits="userSpaceOnUse">
<stop stop-color="#09068A"/>
<stop offset="0.455" stop-color="#0343A3"/>
<stop offset="0.75" stop-color="#005AFF"/>
</linearGradient>
<linearGradient id="paint1_linear_206_54" x1="33.5138" y1="28" x2="33.4255" y2="41.9996" gradientUnits="userSpaceOnUse">
<stop stop-color="#09068A"/>
<stop offset="0.455" stop-color="#0343A3"/>
<stop offset="0.75" stop-color="#005AFF"/>
</linearGradient>
</defs>
</svg>
